<svg width="24" height="24" viewBox="0 0 24 24" fill="none" xmlns="http://www.w3.org/2000/svg">
<mask id="mask0_308_252" style="mask-type:alpha" maskUnits="userSpaceOnUse" x="0" y="0" width="24" height="24">
<rect width="24" height="24" fill="#D9D9D9"/>
</mask>
<g mask="url(#mask0_308_252)">
<path d="M2.23333 5.86667C2.18889 5.86667 2.14722 5.85833 2.10833 5.84167C2.06944 5.825 2.03333 5.8 2 5.76667L0.591667 4.35833C0.530556 4.29722 0.5 4.218 0.5 4.12067C0.5 4.02356 0.530556 3.94445 0.591667 3.88333C0.652778 3.82222 0.730556 3.79167 0.825 3.79167C0.919444 3.79167 0.997222 3.82222 1.05833 3.88333L2.70833 5.53334L2.46667 5.76667C2.43333 5.8 2.39722 5.825 2.35833 5.84167C2.31944 5.85833 2.27778 5.86667 2.23333 5.86667ZM4.11667 5.85834C4.07222 5.85834 4.03056 5.85133 3.99167 5.83733C3.95278 5.82356 3.91667 5.8 3.88333 5.76667L2.46667 4.35C2.40556 4.28889 2.375 4.20967 2.375 4.11233C2.375 4.01522 2.40556 3.93611 2.46667 3.875C2.52778 3.81389 2.60556 3.78334 2.7 3.78334C2.79444 3.78334 2.87222 3.81389 2.93333 3.875L4.11667 5.05833L6.95 2.225C7.01111 2.16389 7.08889 2.13334 7.18333 2.13334C7.27778 2.13334 7.35556 2.16389 7.41667 2.225C7.47778 2.28611 7.50833 2.36522 7.50833 2.46234C7.50833 2.55967 7.47778 2.63889 7.41667 2.7L4.35 5.76667C4.31667 5.8 4.28056 5.82356 4.24167 5.83733C4.20278 5.85133 4.16111 5.85834 4.11667 5.85834ZM4.11667 4.11667L3.64167 3.65L5.05833 2.23334C5.11944 2.17222 5.19856 2.14167 5.29567 2.14167C5.393 2.14167 5.47222 2.17222 5.53333 2.23334C5.59444 2.29445 5.625 2.37222 5.625 2.46667C5.625 2.56111 5.59444 2.63889 5.53333 2.7L4.11667 4.11667Z" fill="#737A82"/>
</g>
</svg>
