<svg width="300" height="300" viewBox="0 0 300 300" fill="none" xmlns="http://www.w3.org/2000/svg">
<path d="M240.012 93.6992C235.99 87.6415 229.113 83.655 221.297 83.655H77.7116C71.25 83.655 65.4231 86.3838 61.3269 90.7569C57.4203 94.9131 55.2492 100.405 55.2577 106.109V199.363C55.2577 205.34 57.5943 210.769 61.4019 214.79C65.4981 219.117 71.2904 221.811 77.7116 221.811H221.296C229.188 221.811 236.129 217.738 240.133 211.583C242.499 207.947 243.756 203.701 243.75 199.363V106.109C243.75 101.522 242.371 97.2531 240.012 93.6992Z" fill="#848AB8"/>
<path d="M61.4077 214.784L129.496 152.736L150.64 171.953L172.419 152.736L240.012 211.501L240.133 211.582C236.129 217.738 229.189 221.811 221.297 221.811H77.7116C71.2904 221.811 65.4981 219.117 61.402 214.79L61.4077 214.784Z" fill="#6A73A5"/>
<path d="M221.296 83.655C229.113 83.655 235.99 87.6415 240.011 93.6992L172.419 152.736L150.64 171.953L129.496 152.736L61.3269 90.7569C65.4231 86.3838 71.25 83.655 77.7115 83.655H221.296Z" fill="#A8ACCF"/>
<path d="M250.962 63.4627C259.724 63.4627 266.827 56.3595 266.827 47.5973C266.827 38.8351 259.724 31.7319 250.962 31.7319C242.199 31.7319 235.096 38.8351 235.096 47.5973C235.096 56.3595 242.199 63.4627 250.962 63.4627Z" fill="#1977D7"/>
<path d="M41.8269 51.9242C48.2019 51.9242 53.3654 57.0877 53.3654 63.4627C53.3654 69.8377 48.2019 75.0012 41.8269 75.0012C35.4519 75.0012 30.2885 69.8377 30.2885 63.4627C30.2885 57.0877 35.4519 51.9242 41.8269 51.9242Z" fill="#1977D7"/>
<path d="M180.49 85.5069L180.877 83.655L183.451 71.2569C186.069 58.6223 179.4 46.2185 168.099 41.13L170.378 30.1454C171.04 26.9723 168.998 23.8627 165.82 23.1992C162.647 22.5415 159.537 24.5839 158.874 27.7627L156.595 38.7415C144.203 38.9089 133.149 47.6377 130.53 60.2781L127.801 73.4204L125.678 83.655L124.576 88.9512C123.733 93.0242 121.16 96.48 117.595 98.6204C114.347 100.576 111.889 103.83 111.058 107.84L143.978 114.67C142.085 116.782 140.931 119.574 140.931 122.638C140.931 129.238 146.279 134.586 152.879 134.586C159.479 134.586 164.828 129.238 164.828 122.638C164.828 121.322 164.614 120.053 164.215 118.87L182.383 122.638C182.585 121.668 182.683 120.705 182.683 119.759C182.683 116.77 181.726 113.926 180.052 111.584C177.64 108.197 176.654 104.003 177.496 99.9358L180.49 85.5069Z" fill="#FFD83D"/>
<path d="M124.575 88.9512L125.677 83.655L127.8 73.4204L180.49 85.5069L177.497 99.9358C176.654 104.003 177.641 108.197 180.053 111.584C181.726 113.926 182.684 116.77 182.684 119.759C182.684 120.705 182.586 121.668 182.383 122.638L164.216 118.87L143.978 114.67L111.058 107.84C111.889 103.83 114.347 100.576 117.595 98.6204C121.16 96.48 123.733 93.0242 124.575 88.9512Z" fill="#FFB700"/>
<path d="M269.458 104.015C271.754 104.672 273.087 107.067 272.429 109.363C271.771 111.659 269.377 112.992 267.081 112.334C264.785 111.682 263.452 109.282 264.11 106.986C264.762 104.69 267.162 103.357 269.458 104.015ZM260.971 208.115C263.267 208.772 264.6 211.166 263.942 213.463C263.285 215.759 260.89 217.092 258.594 216.434C256.298 215.776 254.965 213.382 255.623 211.085C256.275 208.79 258.675 207.457 260.971 208.115Z" fill="#BDE1FF"/>
<path d="M246.635 265.386C248.228 265.386 249.519 264.094 249.519 262.501C249.519 260.908 248.228 259.617 246.635 259.617C245.041 259.617 243.75 260.908 243.75 262.501C243.75 264.094 245.041 265.386 246.635 265.386Z" fill="#A8ACCF"/>
<path d="M208.881 40.5531C211.177 41.2108 212.51 43.605 211.852 45.9012C211.194 48.1973 208.8 49.53 206.504 48.8723C204.208 48.2204 202.875 45.8204 203.533 43.5242C204.185 41.2281 206.585 39.8954 208.881 40.5531ZM105.035 52.0915C107.331 52.7435 108.663 55.1435 108.006 57.4396C107.348 59.7358 104.954 61.0685 102.658 60.4108C100.362 59.7531 99.0288 57.3589 99.6865 55.0627C100.338 52.7665 102.738 51.4339 105.035 52.0915Z" fill="#BDE1FF"/>
<path d="M73.5577 276.924C75.1508 276.924 76.4423 275.633 76.4423 274.04C76.4423 272.446 75.1508 271.155 73.5577 271.155C71.9646 271.155 70.6731 272.446 70.6731 274.04C70.6731 275.633 71.9646 276.924 73.5577 276.924Z" fill="#A8ACCF"/>
<path d="M67.5347 31.8992C69.8309 32.5569 71.1635 34.9512 70.5059 37.2473C69.8482 39.5435 67.4539 40.8762 65.1578 40.2185C62.8616 39.5665 61.5289 37.1665 62.1866 34.8704C62.8386 32.5742 65.2385 31.2415 67.5347 31.8992ZM41.5732 207.861C43.8693 208.518 45.202 210.913 44.5443 213.209C43.8866 215.505 41.4924 216.838 39.1962 216.18C36.9001 215.528 35.5674 213.128 36.2251 210.832C36.877 208.536 39.277 207.203 41.5732 207.861ZM30.0347 138.63C32.3309 139.282 33.6635 141.682 33.0059 143.978C32.3482 146.274 29.9539 147.607 27.6578 146.949C25.3616 146.292 24.0289 143.897 24.6866 141.601C25.3385 139.305 27.7385 137.972 30.0347 138.63Z" fill="#BDE1FF"/>
<path d="M180.288 253.847H24.5193C23.7542 253.847 23.0205 253.543 22.4795 253.002C21.9386 252.461 21.6346 251.728 21.6346 250.963C21.6346 250.198 21.9386 249.464 22.4795 248.923C23.0205 248.382 23.7542 248.078 24.5193 248.078H180.288C181.882 248.078 183.173 249.369 183.173 250.963C183.173 252.556 181.882 253.847 180.288 253.847ZM237.981 265.386H154.327C152.733 265.386 151.442 264.095 151.442 262.501C151.442 260.908 152.733 259.617 154.327 259.617H237.981C239.574 259.617 240.865 260.908 240.865 262.501C240.865 264.095 239.574 265.386 237.981 265.386ZM191.827 276.924H82.2116C81.4465 276.924 80.7128 276.62 80.1718 276.079C79.6309 275.538 79.3269 274.805 79.3269 274.04C79.3269 273.275 79.6309 272.541 80.1718 272C80.7128 271.459 81.4465 271.155 82.2116 271.155H191.827C193.42 271.155 194.712 272.446 194.712 274.04C194.712 275.633 193.42 276.924 191.827 276.924ZM275.481 265.386H255.288C253.695 265.386 252.404 264.095 252.404 262.501C252.404 260.908 253.695 259.617 255.288 259.617H275.481C277.074 259.617 278.365 260.908 278.365 262.501C278.365 264.095 277.074 265.386 275.481 265.386Z" fill="#A8ACCF"/>
</svg>
