<svg width="20" height="20" viewBox="0 0 20 20" fill="none" xmlns="http://www.w3.org/2000/svg">
<path fill-rule="evenodd" clip-rule="evenodd" d="M6.36459 2.82949C4.21709 2.82949 2.82959 4.30199 2.82959 6.57366V13.4187C2.82959 14.0562 2.94793 14.6253 3.15043 15.1178C3.15917 15.1074 3.34998 14.8749 3.59885 14.5716C4.08508 13.9791 4.79297 13.1164 4.79793 13.112C5.37459 12.4537 6.45709 11.472 7.87793 12.0662C8.18927 12.1953 8.46602 12.3721 8.72077 12.5349C8.74559 12.5507 8.77019 12.5665 8.79459 12.582C9.27209 12.9012 9.55293 13.0512 9.84459 13.0262C9.96543 13.0095 10.0788 12.9737 10.1863 12.907C10.5918 12.657 11.6431 11.1673 11.958 10.7212C12.0041 10.6558 12.0345 10.6128 12.0446 10.5995C12.9529 9.41616 14.3529 9.09949 15.5196 9.79949C15.6763 9.89283 16.7988 10.677 17.1704 10.992V6.57366C17.1704 4.30199 15.7829 2.82949 13.6279 2.82949H6.36459ZM13.6279 1.66699C16.4421 1.66699 18.3329 3.63533 18.3329 6.57366V13.4187C18.3329 13.4926 18.3252 13.5619 18.3174 13.6311C18.312 13.6798 18.3065 13.7284 18.3038 13.7787C18.302 13.809 18.3011 13.8394 18.3002 13.8697C18.2991 13.9102 18.2979 13.9507 18.2946 13.9912C18.2929 14.007 18.2898 14.0222 18.2867 14.0374C18.2836 14.0526 18.2804 14.0678 18.2788 14.0837C18.2513 14.3453 18.2088 14.5953 18.1496 14.8378C18.1356 14.8984 18.1194 14.9569 18.1031 15.0159L18.0996 15.0287C18.0329 15.2637 17.9546 15.4878 17.8604 15.702C17.8439 15.738 17.8265 15.7731 17.8091 15.8082C17.7975 15.8316 17.7859 15.855 17.7746 15.8787C17.6729 16.0828 17.5629 16.2787 17.4354 16.4603C17.4118 16.494 17.3867 16.5255 17.3616 16.557C17.345 16.5779 17.3283 16.5988 17.3121 16.6203C17.1796 16.792 17.0413 16.9562 16.8846 17.1053C16.8533 17.1351 16.8195 17.1623 16.7857 17.1895C16.7646 17.2065 16.7434 17.2235 16.7229 17.2412C16.5621 17.3795 16.3979 17.512 16.2171 17.6253C16.1776 17.6501 16.1357 17.6709 16.0939 17.6916C16.0669 17.705 16.0399 17.7184 16.0138 17.7328C15.8296 17.8345 15.6438 17.9337 15.4413 18.0103C15.3925 18.0288 15.3407 18.0422 15.2887 18.0556C15.2518 18.0652 15.2148 18.0747 15.1788 18.0862C15.1607 18.0917 15.1428 18.0973 15.1248 18.1029C14.9439 18.1592 14.7636 18.2153 14.5688 18.2487C14.4559 18.2684 14.3362 18.276 14.2163 18.2836C14.1645 18.2869 14.1126 18.2902 14.0613 18.2945C14.0061 18.2986 13.952 18.3053 13.8978 18.3119C13.8096 18.3228 13.7213 18.3337 13.6279 18.3337H6.36459C6.05126 18.3337 5.75209 18.302 5.46293 18.2545L5.43209 18.2495C4.30459 18.0553 3.36876 17.5112 2.71293 16.6903C2.70837 16.6903 2.70658 16.6873 2.7042 16.6832C2.70266 16.6805 2.70087 16.6774 2.69793 16.6745C2.03876 15.8445 1.66626 14.7287 1.66626 13.4187V6.57366C1.66626 3.63533 3.55876 1.66699 6.36459 1.66699H13.6279ZM9.16676 7.09579C9.16676 8.22492 8.22199 9.16666 7.08746 9.16666C6.09021 9.16666 5.23992 8.43804 5.04935 7.49468C5.01786 7.35314 5.00009 7.20758 5.00009 7.05719C5.00009 5.92002 5.92387 4.99999 7.06566 4.99999C7.64706 4.99999 8.17354 5.24448 8.55064 5.63452C8.92936 6.0109 9.16676 6.52962 9.16676 7.09579Z" fill="#737A82"/>
</svg>
