<svg width="12" height="14" viewBox="0 0 12 14" fill="none" xmlns="http://www.w3.org/2000/svg">
<path fill-rule="evenodd" clip-rule="evenodd" d="M0.333496 5.8785C0.333496 2.81192 2.89608 0.333328 5.99579 0.333328C9.10424 0.333328 11.6668 2.81192 11.6668 5.8785C11.6668 7.42379 11.1048 8.85841 10.1798 10.0744C9.15937 11.4157 7.9016 12.5843 6.48586 13.5016C6.16184 13.7136 5.86941 13.7296 5.5138 13.5016C4.08999 12.5843 2.83222 11.4157 1.8205 10.0744C0.894818 8.85841 0.333496 7.42379 0.333496 5.8785ZM4.12965 6.05116C4.12965 7.07847 4.96793 7.88644 5.99579 7.88644C7.02432 7.88644 7.87068 7.07847 7.87068 6.05116C7.87068 5.03186 7.02432 4.18455 5.99579 4.18455C4.96793 4.18455 4.12965 5.03186 4.12965 6.05116Z" fill="#737A82"/>
</svg>
