<svg width="14" height="14" viewBox="0 0 14 14" fill="none" xmlns="http://www.w3.org/2000/svg">
<path d="M13.2902 0.721324C12.9567 0.379068 12.4632 0.251561 12.003 0.385779L1.27192 3.50635C0.786384 3.64124 0.442243 4.02846 0.349539 4.52037C0.254833 5.021 0.585635 5.65653 1.01781 5.92228L4.37319 7.98454C4.71733 8.19594 5.16151 8.14292 5.44629 7.85569L9.28853 3.98954C9.48194 3.78821 9.80208 3.78821 9.99549 3.98954C10.1889 4.18415 10.1889 4.49957 9.99549 4.70089L6.14658 8.56772C5.86113 8.85428 5.80777 9.30055 6.01786 9.64683L8.06803 13.0358C8.30813 13.4385 8.72163 13.6667 9.17515 13.6667C9.22851 13.6667 9.28853 13.6667 9.34189 13.66C9.8621 13.5928 10.2756 13.2372 10.429 12.7339L13.6103 2.01653C13.7504 1.56019 13.6236 1.06358 13.2902 0.721324Z" fill="white"/>
</svg>
