<svg width="16" height="16" viewBox="0 0 16 16" fill="none" xmlns="http://www.w3.org/2000/svg">
<path fill-rule="evenodd" clip-rule="evenodd" d="M5.1135 1.3334H10.8935C13.1535 1.3334 14.6668 2.9194 14.6668 5.2794V10.7261C14.6668 13.0801 13.1535 14.6667 10.8935 14.6667H5.1135C2.8535 14.6667 1.3335 13.0801 1.3335 10.7261V5.2794C1.3335 2.9194 2.8535 1.3334 5.1135 1.3334ZM10.3868 10.5401C10.5535 10.5401 10.7202 10.4534 10.8135 10.2934C10.9602 10.0594 10.8802 9.75274 10.6402 9.60674L8.26683 8.1934V5.11274C8.26683 4.84007 8.04683 4.61274 7.76683 4.61274C7.4935 4.61274 7.26683 4.84007 7.26683 5.11274V8.48007C7.26683 8.65341 7.36016 8.82007 7.5135 8.90674L10.1268 10.4667C10.2068 10.5201 10.3002 10.5401 10.3868 10.5401Z" fill="#737A82"/>
</svg>
