<svg width="56" height="56" viewBox="0 0 56 56" fill="none" xmlns="http://www.w3.org/2000/svg">
<path d="M15.2387 12.9187L10.5988 8.27881C9.95794 7.63798 8.91964 7.63798 8.27881 8.27881C7.63798 8.91964 7.63798 9.95794 8.27881 10.5988L12.9187 15.2387C13.5595 15.8795 14.5978 15.8795 15.2387 15.2387C15.8795 14.5978 15.8795 13.5595 15.2387 12.9187ZM8.3125 26.3594H1.64062C0.733797 26.3594 0 27.0932 0 28C0 28.9068 0.733797 29.6406 1.64062 29.6406H8.3125C9.21933 29.6406 9.95312 28.9068 9.95312 28C9.95312 27.0932 9.21933 26.3594 8.3125 26.3594ZM54.3594 26.3594H47.6875C46.7807 26.3594 46.0469 27.0932 46.0469 28C46.0469 28.9068 46.7807 29.6406 47.6875 29.6406H54.3594C55.2662 29.6406 56 28.9068 56 28C56 27.0932 55.2662 26.3594 54.3594 26.3594ZM47.7212 8.27881C47.0804 7.63798 46.0421 7.63798 45.4012 8.27881L40.7613 12.9187C40.1205 13.5595 40.1205 14.5978 40.7613 15.2387C41.4022 15.8795 42.4405 15.8795 43.0813 15.2387L47.7212 10.5988C48.362 9.95794 48.362 8.91975 47.7212 8.27881ZM28 0C27.0932 0 26.3594 0.733797 26.3594 1.64062V8.3125C26.3594 9.21933 27.0932 9.95312 28 9.95312C28.9068 9.95312 29.6406 9.21933 29.6406 8.3125V1.64062C29.6406 0.733797 28.9068 0 28 0ZM37.1875 16.4171C33.611 13.5952 28.9844 12.5781 24.4563 13.6609C19.2063 14.875 14.9735 19.0421 13.6937 24.2594C12.4141 29.5093 13.8906 34.8249 17.664 38.5327C19.0094 39.8781 19.7969 41.989 19.7969 44.1547V44.5156C19.7969 45.4343 20.5186 46.1562 21.4375 46.1562H34.5625C35.4814 46.1562 36.2031 45.4343 36.2031 44.5156V44.1547C36.2031 42.0218 37.0234 39.8452 38.4672 38.4343C41.2235 35.6452 42.7656 31.9375 42.7656 28C42.7656 23.4719 40.7313 19.239 37.1875 16.4171ZM28 23.0781C25.5248 23.0781 23.723 24.72 23.2512 26.6206C23.0365 27.485 22.1667 28.0366 21.2628 27.819C20.3849 27.6011 19.8481 26.7103 20.066 25.8323C20.8789 22.551 23.9609 19.7969 28 19.7969C28.9068 19.7969 29.6406 20.5307 29.6406 21.4375C29.6406 22.3443 28.9068 23.0781 28 23.0781ZM21.4375 49.4375V51.0781C21.4375 53.7922 23.6453 56 26.3594 56H29.6406C32.3547 56 34.5625 53.7922 34.5625 51.0781V49.4375H21.4375Z" fill="#FFA000"/>
</svg>
